<svg id="visual" viewBox="0 0 1920 1080" width="1920" height="1080" xmlns="http://www.w3.org/2000/svg" xmlns:xlink="http://www.w3.org/1999/xlink" version="1.1"><rect width="1920" height="1080" fill="#240046"></rect><g><g transform="translate(1375 969)"><path d="M147 -91.7C169.7 -45.6 152.9 16.5 121.8 64.8C90.7 113.1 45.4 147.6 -0.4 147.8C-46.2 148.1 -92.5 114.1 -122.5 66.4C-152.5 18.8 -166.2 -42.6 -143.1 -89C-120 -135.4 -60 -166.9 1.1 -167.5C62.2 -168.2 124.3 -137.9 147 -91.7Z" fill="#5a189a"></path></g><g transform="translate(1823 503)"><path d="M87.5 -50.6C104.9 -20.4 104.7 19.9 87.1 47.6C69.6 75.3 34.8 90.3 1.5 89.4C-31.7 88.5 -63.5 71.8 -76.5 46.7C-89.5 21.6 -83.7 -11.7 -67.9 -41C-52 -70.3 -26 -95.5 4.5 -98.1C35.1 -100.7 70.2 -80.7 87.5 -50.6Z" fill="#5a189a"></path></g><g transform="translate(931 18)"><path d="M138.7 -80.3C160.4 -42.4 145.5 16.5 116.3 56.2C87.1 96 43.5 116.5 -5.5 119.7C-54.6 122.9 -109.2 108.8 -136.7 70C-164.3 31.3 -164.7 -32 -137.4 -73.2C-110.1 -114.4 -55 -133.4 1.7 -134.4C58.4 -135.3 116.9 -118.3 138.7 -80.3Z" fill="#5a189a"></path></g><g transform="translate(672 664)"><path d="M84.2 -47.6C97.8 -25.1 89.6 10.9 71.9 38.5C54.3 66 27.1 85.1 -4 87.4C-35.1 89.7 -70.1 75.2 -82.6 50.7C-95 26.2 -84.7 -8.4 -67.2 -33.2C-49.6 -57.9 -24.8 -72.9 5.2 -75.9C35.3 -78.9 70.6 -70 84.2 -47.6Z" fill="#5a189a"></path></g><g transform="translate(201 548)"><path d="M136.7 -85.3C156.6 -44.4 138.1 12.3 108.9 54.8C79.7 97.2 39.8 125.5 -6.8 129.4C-53.5 133.3 -107 113 -128.7 74.8C-150.4 36.7 -140.4 -19.3 -113.6 -64.2C-86.9 -109 -43.5 -142.7 7.5 -147.1C58.4 -151.4 116.8 -126.2 136.7 -85.3Z" fill="#5a189a"></path></g><g transform="translate(44 97)"><path d="M80.2 -51.5C94.6 -21.3 90.6 14.3 74.1 41.3C57.7 68.2 28.9 86.5 -4.1 88.9C-37.1 91.3 -74.3 77.8 -92.3 49.9C-110.3 22.1 -109.3 -20.2 -90.7 -52.8C-72.1 -85.4 -36.1 -108.4 -1.6 -107.4C32.9 -106.5 65.7 -81.7 80.2 -51.5Z" fill="#5a189a"></path></g><g transform="translate(1120 481)"><path d="M117.8 -65.3C142 -26.3 143.3 28.6 119.9 64.2C96.5 99.8 48.2 116 4.6 113.4C-39.1 110.7 -78.2 89.2 -95.7 57C-113.3 24.8 -109.4 -18 -89.8 -54.4C-70.3 -90.9 -35.1 -120.9 5.9 -124.3C46.9 -127.7 93.7 -104.4 117.8 -65.3Z" fill="#5a189a"></path></g><g transform="translate(1872 1047)"><path d="M52.4 -32.2C60.9 -15.5 56.1 7 45.1 22.2C34.1 37.5 17.1 45.4 0.2 45.3C-16.8 45.2 -33.5 37.1 -41.6 23.5C-49.8 9.9 -49.3 -9.1 -40.9 -25.7C-32.6 -42.3 -16.3 -56.5 2.8 -58.1C21.9 -59.8 43.9 -48.9 52.4 -32.2Z" fill="#5a189a"></path></g><g transform="translate(1791 23)"><path d="M92.3 -50.5C112.8 -17.8 117.9 26.6 99.9 67C82 107.3 41 143.6 -0.9 144.2C-42.8 144.7 -85.6 109.4 -108.5 66.1C-131.5 22.9 -134.7 -28.4 -113.3 -61.5C-91.9 -94.7 -45.9 -109.8 -5 -107C35.9 -104.1 71.9 -83.1 92.3 -50.5Z" fill="#5a189a"></path></g><g transform="translate(167 1074)"><path d="M30 -18.5C36.8 -5.5 38.8 9 33 20.2C27.2 31.4 13.6 39.2 -1.7 40.2C-17 41.2 -34 35.3 -41.3 23.3C-48.6 11.2 -46.2 -7 -37.7 -21C-29.2 -34.9 -14.6 -44.5 -1.5 -43.7C11.6 -42.8 23.2 -31.4 30 -18.5Z" fill="#5a189a"></path></g><g transform="translate(498 123)"><path d="M71.4 -36.8C87.9 -12.8 93.2 22.1 79.5 50.1C65.7 78.1 32.9 99.2 4.6 96.6C-23.8 94 -47.5 67.6 -64.5 37.7C-81.5 7.8 -91.8 -25.6 -79.9 -47C-68.1 -68.4 -34 -77.8 -3.3 -75.9C27.5 -74 55 -60.8 71.4 -36.8Z" fill="#5a189a"></path></g><g transform="translate(938 1078)"><path d="M106.7 -57.3C129.3 -22.3 132.7 28.1 111.7 67.2C90.7 106.4 45.3 134.2 0.5 134C-44.3 133.7 -88.7 105.2 -108.2 66.9C-127.8 28.6 -122.7 -19.6 -100.5 -54.4C-78.3 -89.1 -39.2 -110.3 1.4 -111.2C42 -112 84 -92.4 106.7 -57.3Z" fill="#5a189a"></path></g></g></svg>